<svg xmlns="http://www.w3.org/2000/svg" xmlns:xlink="http://www.w3.org/1999/xlink" width="147.75" height="32.057" viewBox="0 0 147.75 32.057">
  <defs>
    <clipPath id="clip-path">
      <path id="Tracé_13" data-name="Tracé 13" d="M0-21.929H147.75V-53.986H0Z" transform="translate(0 53.986)" fill="none"/>
    </clipPath>
  </defs>
  <g id="Groupe_1544" data-name="Groupe 1544" transform="translate(0 53.986)">
    <g id="Groupe_13" data-name="Groupe 13" transform="translate(0 -53.986)" clip-path="url(#clip-path)">
      <g id="Groupe_3" data-name="Groupe 3" transform="translate(127.058 11.079)">
        <path id="Tracé_3" data-name="Tracé 3" d="M-14.155-7.267a.921.921,0,0,0-.072.161,1.431,1.431,0,0,1-1.49,1.186H-28.825c-.1,0-.2,0-.3,0a.541.541,0,0,0-.547.8,5.312,5.312,0,0,0,3.1,3.1,7.42,7.42,0,0,0,3.446.433,7.352,7.352,0,0,0,3.814-1.35,7.669,7.669,0,0,0,.718-.623,1.451,1.451,0,0,1,2-.067c.318.271.631.545.94.824a1.473,1.473,0,0,1,.133,2.127,10.318,10.318,0,0,1-4.861,3.079,12.658,12.658,0,0,1-4.09.654A10.441,10.441,0,0,1-34.57-5.02a10.42,10.42,0,0,1,7.642-12.54A10.114,10.114,0,0,1-14.416-9.734c.1.471.128.958.191,1.438.016.106.046.21.069.315ZM-24.408-9.328q2.278,0,4.556,0c.61,0,.863-.381.573-.916a5.556,5.556,0,0,0-5.133-3.177,5.616,5.616,0,0,0-5.072,3.145c-.315.562-.067.948.581.949h4.5" transform="translate(34.847 17.889)"/>
      </g>
      <g id="Groupe_4" data-name="Groupe 4" transform="translate(61.05 11.063)">
        <path id="Tracé_4" data-name="Tracé 4" d="M-9.63-12.719c-.195.166-.372.325-.557.471a8.63,8.63,0,0,1-4.707,1.869,8.218,8.218,0,0,1-8.4-5.348,7.284,7.284,0,0,1-.412-2.476q.012-5.758.011-11.515a1.421,1.421,0,0,1,1.461-1.468c.565,0,1.132,0,1.7,0a1.429,1.429,0,0,1,1.45,1.454c0,3.769.02,7.537,0,11.306a3.32,3.32,0,0,0,2.835,3.308,3.675,3.675,0,0,0,3.592-1.229,2.879,2.879,0,0,0,.707-1.94c0-3.768.015-7.538-.01-11.307a1.527,1.527,0,0,1,1.593-1.6c.514.033,1.031,0,1.548.008a1.417,1.417,0,0,1,1.48,1.477c0,3.75.023,7.5-.007,11.249a3.3,3.3,0,0,0,2.745,3.325,3.644,3.644,0,0,0,3.7-1.233,2.957,2.957,0,0,0,.683-1.98c0-1.507,0-3.015,0-4.522q0-3.422.01-6.843a1.409,1.409,0,0,1,1.318-1.551,10.072,10.072,0,0,1,2.077.016A1.337,1.337,0,0,1,4.4-29.812q.005,4.626,0,9.254c0,.794.007,1.587-.007,2.381A7.613,7.613,0,0,1,.724-11.655a7.934,7.934,0,0,1-4.448,1.307A8.3,8.3,0,0,1-9.376-12.5c-.08-.072-.16-.141-.254-.224" transform="translate(23.707 31.312)"/>
      </g>
      <g id="Groupe_5" data-name="Groupe 5" transform="translate(42.622 0.123)">
        <path id="Tracé_5" data-name="Tracé 5" d="M-3.227-12.134l.668-.631q2.975-2.812,5.947-5.627a1.788,1.788,0,0,1,1.367-.536c.486.019.974,0,1.459.007a1.412,1.412,0,0,1,1.37.875,1.367,1.367,0,0,1-.29,1.593c-.894.931-1.8,1.846-2.707,2.767Q2.616-11.678.648-9.669c-.069.071-.132.144-.219.24.351.415.694.824,1.04,1.23q3.3,3.873,6.608,7.743A1.445,1.445,0,0,1,8.353,1.2a1.442,1.442,0,0,1-1.421.845c-.606,0-1.211-.008-1.817,0A1.655,1.655,0,0,1,3.741,1.4Q1.363-1.477-1.031-4.347-2.05-5.572-3.066-6.8A1.439,1.439,0,0,1-3.2-7.023l-.116.069V.408A1.494,1.494,0,0,1-4.94,2.037a15.783,15.783,0,0,1-1.868-.062A1.326,1.326,0,0,1-7.929.692C-7.937.575-7.938.455-7.938.337q-.005-14.224-.006-28.446a2.576,2.576,0,0,1,.058-.708A1.238,1.238,0,0,1-6.843-29.8a11.592,11.592,0,0,1,2.283-.024,1.394,1.394,0,0,1,1.248,1.495c0,1.626,0,3.252,0,4.879v11.293l.085.024" transform="translate(7.944 29.871)"/>
      </g>
      <g id="Groupe_6" data-name="Groupe 6" transform="translate(91.949 11.128)">
        <path id="Tracé_6" data-name="Tracé 6" d="M-7.139-14.317A10.423,10.423,0,0,1-17.574-24.882,10.44,10.44,0,0,1-6.863-35.242a10.45,10.45,0,0,1,10.2,10.692A10.427,10.427,0,0,1-7.139-14.317M-12.876-24.78A5.755,5.755,0,0,0-7.094-19a5.765,5.765,0,0,0,5.743-5.771,5.836,5.836,0,0,0-5.761-5.774,5.754,5.754,0,0,0-5.764,5.765" transform="translate(17.575 35.245)"/>
      </g>
      <g id="Groupe_7" data-name="Groupe 7" transform="translate(115.652 0)">
        <path id="Tracé_7" data-name="Tracé 7" d="M-3.435-7.575c1.112,0,2.174,0,3.234,0a4,4,0,0,1,.68.051A1.383,1.383,0,0,1,1.636-6.17c.01.654.011,1.31,0,1.964A1.36,1.36,0,0,1,.354-2.852c-.713.034-1.43.019-2.144.024-.458,0-.914.005-1.372,0-.195,0-.3.06-.274.275a1.865,1.865,0,0,1,0,.238V11.759a1.492,1.492,0,0,1-1.625,1.628c-.615,0-1.23,0-1.846,0a1.471,1.471,0,0,1-1.55-1.55V-17.087a1.476,1.476,0,0,1,1.545-1.558c.635,0,1.271,0,1.905,0a1.486,1.486,0,0,1,1.571,1.566v9.5Z" transform="translate(8.456 18.647)"/>
      </g>
      <g id="Groupe_8" data-name="Groupe 8" transform="translate(0 10.921)">
        <path id="Tracé_8" data-name="Tracé 8" d="M-6.732,0A2.111,2.111,0,0,1-4.621,2.112a2.111,2.111,0,0,1-1.953,2.1l-.158.005h-7.73a2.11,2.11,0,0,1-2.111-2.11A2.111,2.111,0,0,1-14.619.006L-14.462,0Z" transform="translate(16.573)" fill="#6066f7"/>
      </g>
      <g id="Groupe_9" data-name="Groupe 9" transform="translate(6.652 19.258)">
        <path id="Tracé_9" data-name="Tracé 9" d="M-5.935,0A2.111,2.111,0,0,1-3.824,2.112a2.111,2.111,0,0,1-1.953,2.1l-.158.005H-12.5a2.11,2.11,0,0,1-2.112-2.11A2.111,2.111,0,0,1-12.656.006L-12.5,0Z" transform="translate(14.61)" fill="#51ccaa"/>
      </g>
      <g id="Groupe_10" data-name="Groupe 10" transform="translate(20.045 19.258)">
        <path id="Tracé_10" data-name="Tracé 10" d="M-1.451,0A2.111,2.111,0,0,1,.66,2.112a2.111,2.111,0,0,1-1.953,2.1l-.168.005a2.109,2.109,0,0,1-2.111-2.11A2.111,2.111,0,0,1-1.619.006Z" transform="translate(3.572)" fill="#fc6"/>
      </g>
      <g id="Groupe_11" data-name="Groupe 11" transform="translate(13.301 27.7)">
        <path id="Tracé_11" data-name="Tracé 11" d="M-1.516,0A2.11,2.11,0,0,1,.595,2.111a2.11,2.11,0,0,1-1.953,2.1l-.158.006h-.105a2.11,2.11,0,0,1-2.112-2.11A2.112,2.112,0,0,1-1.779.005L-1.621,0Z" transform="translate(3.733)"/>
      </g>
      <g id="Groupe_12" data-name="Groupe 12" transform="translate(14.462 10.921)">
        <path id="Tracé_12" data-name="Tracé 12" d="M-9.761,0A2.111,2.111,0,0,1-7.65,2.112,2.111,2.111,0,0,1-9.6,4.216l-.158.005H-21.917a2.11,2.11,0,0,1-2.112-2.11A2.111,2.111,0,0,1-22.075.006L-21.917,0Z" transform="translate(24.029)" fill="#ff8266"/>
      </g>
    </g>
  </g>
</svg>
